<svg xmlns="http://www.w3.org/2000/svg" width="158" height="30" viewBox="0 0 158 30" fill="black">>
<path d="M25.1808 9.8673C24.1833 3.63981 19.2953 0 13.1248 0C5.57199 0 0 5.64455 0 14.9573C0 24.2701 5.54348 29.9147 13.1248 29.9147C19.5376 29.9147 24.226 25.9052 25.1808 20.1469L20.7346 20.1327C19.9793 23.8578 16.8442 25.9052 13.1533 25.9052C8.15135 25.9052 4.37493 22.0806 4.37493 14.9573C4.37493 7.89099 8.1371 4.00948 13.1676 4.00948C16.887 4.00948 20.0078 6.09953 20.7346 9.8673H25.1808Z" />
<path d="M49.218 0.398104V19.1943C49.218 23.1469 46.4819 25.9905 42.0357 25.9905C37.6038 25.9905 34.8534 23.1469 34.8534 19.1943V0.398104H30.45V19.5498C30.45 25.6635 35.0387 30 42.0357 30C49.0328 30 53.6357 25.6635 53.6357 19.5498V0.398104H49.218Z" />
<path d="M60.0378 29.5166H64.4412V18.4976H70.4265C70.5262 18.4976 70.6117 18.4976 70.7115 18.4976L76.6397 29.5166H81.656L75.1862 17.7299C78.7631 16.4076 80.5444 13.436 80.5444 9.52607C80.5444 4.16588 77.2098 0.398104 70.4407 0.398104H60.0378V29.5166ZM64.4412 14.7156V4.16588H69.9705C74.3169 4.16588 76.1125 6.22749 76.1125 9.52607C76.1125 12.8104 74.3169 14.7156 70.0275 14.7156H64.4412Z" />
<path d="M87.7089 0.398104H82.9492L93.4519 29.5166H98.5394L109.042 0.398104H104.282L96.1595 24.1137H95.8317L87.7089 0.398104Z" />
<path d="M113.257 29.5166H131.725V25.7346H117.66V16.8199H130.6V13.0521H117.66V4.1801H131.554V0.398104H113.257V29.5166Z" />
<path d="M153.354 8.04739H157.601C157.473 3.38389 153.34 0 147.412 0C141.555 0 137.066 3.34123 137.066 8.36019C137.066 12.4123 139.973 14.7867 144.661 16.0521L148.11 16.9905C151.231 17.8152 153.639 18.8389 153.639 21.4265C153.639 24.2701 150.917 26.1469 147.17 26.1469C143.778 26.1469 140.956 24.6398 140.7 21.4692H136.282C136.567 26.7441 140.657 30 147.198 30C154.053 30 158 26.4028 158 21.4692C158 16.2227 153.312 14.1896 149.606 13.2796L146.756 12.5403C144.476 11.9573 141.441 10.891 141.455 8.10427C141.455 5.63033 143.721 3.79621 147.312 3.79621C150.661 3.79621 153.041 5.36019 153.354 8.04739Z" />
</svg>